<svg xmlns="http://www.w3.org/2000/svg" xmlns:xlink="http://www.w3.org/1999/xlink" width="128" zoomAndPan="magnify" viewBox="0 0 96 95.999999" height="128" preserveAspectRatio="xMidYMid meet" version="1.0"><defs><g/><clipPath id="8e7e07cceb"><path d="M 9.601562 37.464844 L 30.667969 37.464844 L 30.667969 58.535156 L 9.601562 58.535156 Z M 9.601562 37.464844 " clip-rule="nonzero"/></clipPath><clipPath id="93d1973da7"><path d="M 20.132812 37.464844 C 14.316406 37.464844 9.601562 42.183594 9.601562 48 C 9.601562 53.816406 14.316406 58.535156 20.132812 58.535156 C 25.949219 58.535156 30.667969 53.816406 30.667969 48 C 30.667969 42.183594 25.949219 37.464844 20.132812 37.464844 Z M 20.132812 37.464844 " clip-rule="nonzero"/></clipPath></defs><g clip-path="url(#8e7e07cceb)"><g clip-path="url(#93d1973da7)"><path fill="#ddfe8e" d="M 9.601562 37.464844 L 30.667969 37.464844 L 30.667969 58.535156 L 9.601562 58.535156 Z M 9.601562 37.464844 " fill-opacity="1" fill-rule="nonzero"/></g></g><g fill="#000000" fill-opacity="1"><g transform="translate(12.080376, 55.107028)"><g><path d="M 11.265625 -7.625 L 14.921875 -7.625 L 14.921875 -1.5625 C 14.085938 -0.96875 13.125 -0.507812 12.03125 -0.1875 C 10.945312 0.132812 9.863281 0.296875 8.78125 0.296875 C 7.25 0.296875 5.867188 -0.0234375 4.640625 -0.671875 C 3.410156 -1.328125 2.445312 -2.234375 1.75 -3.390625 C 1.050781 -4.546875 0.703125 -5.851562 0.703125 -7.3125 C 0.703125 -8.78125 1.050781 -10.09375 1.75 -11.25 C 2.445312 -12.40625 3.414062 -13.304688 4.65625 -13.953125 C 5.894531 -14.597656 7.296875 -14.921875 8.859375 -14.921875 C 10.222656 -14.921875 11.445312 -14.691406 12.53125 -14.234375 C 13.625 -13.773438 14.535156 -13.113281 15.265625 -12.25 L 12.625 -9.875 C 11.632812 -10.957031 10.453125 -11.5 9.078125 -11.5 C 7.816406 -11.5 6.800781 -11.117188 6.03125 -10.359375 C 5.269531 -9.597656 4.890625 -8.582031 4.890625 -7.3125 C 4.890625 -6.507812 5.0625 -5.789062 5.40625 -5.15625 C 5.757812 -4.519531 6.25 -4.023438 6.875 -3.671875 C 7.5 -3.316406 8.21875 -3.140625 9.03125 -3.140625 C 9.820312 -3.140625 10.566406 -3.296875 11.265625 -3.609375 Z M 11.265625 -7.625 "/></g></g></g><g fill="#ffffff" fill-opacity="1"><g transform="translate(33.193008, 52.248838)"><g><path d="M 7.125 -4.828125 L 9.4375 -4.828125 L 9.4375 -0.984375 C 8.90625 -0.609375 8.296875 -0.316406 7.609375 -0.109375 C 6.921875 0.0859375 6.234375 0.1875 5.546875 0.1875 C 4.578125 0.1875 3.703125 -0.015625 2.921875 -0.421875 C 2.148438 -0.835938 1.546875 -1.410156 1.109375 -2.140625 C 0.671875 -2.867188 0.453125 -3.695312 0.453125 -4.625 C 0.453125 -5.550781 0.671875 -6.378906 1.109375 -7.109375 C 1.546875 -7.835938 2.15625 -8.40625 2.9375 -8.8125 C 3.726562 -9.226562 4.617188 -9.4375 5.609375 -9.4375 C 6.472656 -9.4375 7.25 -9.289062 7.9375 -9 C 8.625 -8.707031 9.195312 -8.289062 9.65625 -7.75 L 7.984375 -6.234375 C 7.359375 -6.921875 6.609375 -7.265625 5.734375 -7.265625 C 4.941406 -7.265625 4.300781 -7.023438 3.8125 -6.546875 C 3.332031 -6.066406 3.09375 -5.425781 3.09375 -4.625 C 3.09375 -4.113281 3.203125 -3.65625 3.421875 -3.25 C 3.640625 -2.851562 3.945312 -2.539062 4.34375 -2.3125 C 4.738281 -2.09375 5.191406 -1.984375 5.703125 -1.984375 C 6.210938 -1.984375 6.6875 -2.082031 7.125 -2.28125 Z M 7.125 -4.828125 "/></g></g></g><g fill="#ffffff" fill-opacity="1"><g transform="translate(43.365704, 52.248838)"><g><path d="M 4.40625 0.125 C 3.632812 0.125 2.941406 -0.03125 2.328125 -0.34375 C 1.710938 -0.664062 1.226562 -1.109375 0.875 -1.671875 C 0.53125 -2.242188 0.359375 -2.882812 0.359375 -3.59375 C 0.359375 -4.300781 0.53125 -4.9375 0.875 -5.5 C 1.226562 -6.0625 1.707031 -6.5 2.3125 -6.8125 C 2.925781 -7.125 3.625 -7.28125 4.40625 -7.28125 C 5.175781 -7.28125 5.867188 -7.125 6.484375 -6.8125 C 7.109375 -6.5 7.59375 -6.0625 7.9375 -5.5 C 8.28125 -4.945312 8.453125 -4.3125 8.453125 -3.59375 C 8.453125 -2.882812 8.28125 -2.242188 7.9375 -1.671875 C 7.59375 -1.109375 7.109375 -0.664062 6.484375 -0.34375 C 5.867188 -0.03125 5.175781 0.125 4.40625 0.125 Z M 4.40625 -1.875 C 4.84375 -1.875 5.203125 -2.023438 5.484375 -2.328125 C 5.765625 -2.640625 5.90625 -3.0625 5.90625 -3.59375 C 5.90625 -4.125 5.765625 -4.535156 5.484375 -4.828125 C 5.203125 -5.128906 4.84375 -5.28125 4.40625 -5.28125 C 3.957031 -5.28125 3.59375 -5.128906 3.3125 -4.828125 C 3.03125 -4.535156 2.890625 -4.125 2.890625 -3.59375 C 2.890625 -3.0625 3.03125 -2.640625 3.3125 -2.328125 C 3.59375 -2.023438 3.957031 -1.875 4.40625 -1.875 Z M 4.40625 -1.875 "/></g></g></g><g fill="#ffffff" fill-opacity="1"><g transform="translate(52.164421, 52.248838)"><g><path d="M 7.125 -4.828125 L 9.4375 -4.828125 L 9.4375 -0.984375 C 8.90625 -0.609375 8.296875 -0.316406 7.609375 -0.109375 C 6.921875 0.0859375 6.234375 0.1875 5.546875 0.1875 C 4.578125 0.1875 3.703125 -0.015625 2.921875 -0.421875 C 2.148438 -0.835938 1.546875 -1.410156 1.109375 -2.140625 C 0.671875 -2.867188 0.453125 -3.695312 0.453125 -4.625 C 0.453125 -5.550781 0.671875 -6.378906 1.109375 -7.109375 C 1.546875 -7.835938 2.15625 -8.40625 2.9375 -8.8125 C 3.726562 -9.226562 4.617188 -9.4375 5.609375 -9.4375 C 6.472656 -9.4375 7.25 -9.289062 7.9375 -9 C 8.625 -8.707031 9.195312 -8.289062 9.65625 -7.75 L 7.984375 -6.234375 C 7.359375 -6.921875 6.609375 -7.265625 5.734375 -7.265625 C 4.941406 -7.265625 4.300781 -7.023438 3.8125 -6.546875 C 3.332031 -6.066406 3.09375 -5.425781 3.09375 -4.625 C 3.09375 -4.113281 3.203125 -3.65625 3.421875 -3.25 C 3.640625 -2.851562 3.945312 -2.539062 4.34375 -2.3125 C 4.738281 -2.09375 5.191406 -1.984375 5.703125 -1.984375 C 6.210938 -1.984375 6.6875 -2.082031 7.125 -2.28125 Z M 7.125 -4.828125 "/></g></g></g><g fill="#ffffff" fill-opacity="1"><g transform="translate(62.337117, 52.248838)"><g><path d="M 8.359375 -7.171875 L 5.265625 0.296875 C 4.898438 1.171875 4.457031 1.785156 3.9375 2.140625 C 3.414062 2.503906 2.78125 2.6875 2.03125 2.6875 C 1.65625 2.6875 1.273438 2.625 0.890625 2.5 C 0.503906 2.382812 0.191406 2.226562 -0.046875 2.03125 L 0.828125 0.28125 C 0.972656 0.40625 1.144531 0.503906 1.34375 0.578125 C 1.539062 0.660156 1.738281 0.703125 1.9375 0.703125 C 2.175781 0.703125 2.375 0.648438 2.53125 0.546875 C 2.6875 0.453125 2.816406 0.300781 2.921875 0.09375 L -0.140625 -7.171875 L 2.4375 -7.171875 L 4.1875 -2.796875 L 5.96875 -7.171875 Z M 8.359375 -7.171875 "/></g></g></g><g fill="#ffffff" fill-opacity="1"><g transform="translate(70.528115, 52.248838)"><g><path d="M 10.140625 -7.28125 C 11.015625 -7.28125 11.710938 -7.015625 12.234375 -6.484375 C 12.765625 -5.960938 13.03125 -5.164062 13.03125 -4.09375 L 13.03125 0 L 10.515625 0 L 10.515625 -3.6875 C 10.515625 -4.1875 10.421875 -4.554688 10.234375 -4.796875 C 10.046875 -5.035156 9.78125 -5.15625 9.4375 -5.15625 C 9.0625 -5.15625 8.757812 -5.019531 8.53125 -4.75 C 8.300781 -4.488281 8.1875 -4.09375 8.1875 -3.5625 L 8.1875 0 L 5.671875 0 L 5.671875 -3.6875 C 5.671875 -4.664062 5.3125 -5.15625 4.59375 -5.15625 C 4.195312 -5.15625 3.882812 -5.019531 3.65625 -4.75 C 3.425781 -4.488281 3.3125 -4.09375 3.3125 -3.5625 L 3.3125 0 L 0.8125 0 L 0.8125 -7.171875 L 3.203125 -7.171875 L 3.203125 -6.40625 C 3.460938 -6.695312 3.773438 -6.914062 4.140625 -7.0625 C 4.503906 -7.207031 4.90625 -7.28125 5.34375 -7.28125 C 5.84375 -7.28125 6.289062 -7.1875 6.6875 -7 C 7.082031 -6.820312 7.40625 -6.539062 7.65625 -6.15625 C 7.9375 -6.519531 8.289062 -6.796875 8.71875 -6.984375 C 9.15625 -7.179688 9.628906 -7.28125 10.140625 -7.28125 Z M 10.140625 -7.28125 "/></g></g></g></svg>